<svg width="366" height="116" viewBox="0 0 366 116" fill="none" xmlns="http://www.w3.org/2000/svg">
<path d="M28.6364 94.0909C23.9091 94.0909 19.7614 92.9659 16.1932 90.7159C12.6477 88.4659 9.875 85.3182 7.875 81.2727C5.89773 77.2273 4.90909 72.5 4.90909 67.0909C4.90909 61.6364 5.89773 56.875 7.875 52.8068C9.875 48.7386 12.6477 45.5795 16.1932 43.3295C19.7614 41.0795 23.9091 39.9545 28.6364 39.9545C33.3636 39.9545 37.5 41.0795 41.0455 43.3295C44.6136 45.5795 47.3864 48.7386 49.3636 52.8068C51.3636 56.875 52.3636 61.6364 52.3636 67.0909C52.3636 72.5 51.3636 77.2273 49.3636 81.2727C47.3864 85.3182 44.6136 88.4659 41.0455 90.7159C37.5 92.9659 33.3636 94.0909 28.6364 94.0909ZM28.6364 86.8636C32.2273 86.8636 35.1818 85.9432 37.5 84.1023C39.8182 82.2614 41.5341 79.8409 42.6477 76.8409C43.7614 73.8409 44.3182 70.5909 44.3182 67.0909C44.3182 63.5909 43.7614 60.3295 42.6477 57.3068C41.5341 54.2841 39.8182 51.8409 37.5 49.9773C35.1818 48.1136 32.2273 47.1818 28.6364 47.1818C25.0455 47.1818 22.0909 48.1136 19.7727 49.9773C17.4545 51.8409 15.7386 54.2841 14.625 57.3068C13.5114 60.3295 12.9545 63.5909 12.9545 67.0909C12.9545 70.5909 13.5114 73.8409 14.625 76.8409C15.7386 79.8409 17.4545 82.2614 19.7727 84.1023C22.0909 85.9432 25.0455 86.8636 28.6364 86.8636ZM72.6903 61.5V93H64.6449V40.6364H72.4176V48.8182H73.0994C74.3267 46.1591 76.1903 44.0227 78.6903 42.4091C81.1903 40.7727 84.4176 39.9545 88.3722 39.9545C91.9176 39.9545 95.0199 40.6818 97.679 42.1364C100.338 43.5682 102.406 45.75 103.884 48.6818C105.361 51.5909 106.099 55.2727 106.099 59.7273V93H98.054V60.2727C98.054 56.1591 96.9858 52.9545 94.8494 50.6591C92.7131 48.3409 89.7813 47.1818 86.054 47.1818C83.4858 47.1818 81.1903 47.7386 79.1676 48.8523C77.1676 49.9659 75.5881 51.5909 74.429 53.7273C73.2699 55.8636 72.6903 58.4545 72.6903 61.5Z" fill="#FEFEFE"/>
<path d="M122.455 93V23.1818H146.045C151.523 23.1818 156 24.1705 159.477 26.1477C162.977 28.1023 165.568 30.75 167.25 34.0909C168.932 37.4318 169.773 41.1591 169.773 45.2727C169.773 49.3864 168.932 53.125 167.25 56.4886C165.591 59.8523 163.023 62.5341 159.545 64.5341C156.068 66.5114 151.614 67.5 146.182 67.5H129.273V60H145.909C149.659 60 152.67 59.3523 154.943 58.0568C157.216 56.7614 158.864 55.0114 159.886 52.8068C160.932 50.5795 161.455 48.0682 161.455 45.2727C161.455 42.4773 160.932 39.9773 159.886 37.7727C158.864 35.5682 157.205 33.8409 154.909 32.5909C152.614 31.3182 149.568 30.6818 145.773 30.6818H130.909V93H122.455ZM197.71 94.2273C194.392 94.2273 191.381 93.6023 188.676 92.3523C185.972 91.0795 183.824 89.25 182.233 86.8636C180.642 84.4545 179.847 81.5455 179.847 78.1364C179.847 75.1364 180.438 72.7045 181.619 70.8409C182.801 68.9545 184.381 67.4773 186.358 66.4091C188.335 65.3409 190.517 64.5455 192.903 64.0227C195.313 63.4773 197.733 63.0455 200.165 62.7273C203.347 62.3182 205.926 62.0114 207.903 61.8068C209.903 61.5795 211.358 61.2045 212.267 60.6818C213.199 60.1591 213.665 59.25 213.665 57.9545V57.6818C213.665 54.3182 212.744 51.7045 210.903 49.8409C209.085 47.9773 206.324 47.0455 202.619 47.0455C198.778 47.0455 195.767 47.8864 193.585 49.5682C191.403 51.25 189.869 53.0455 188.983 54.9545L181.347 52.2273C182.71 49.0455 184.528 46.5682 186.801 44.7955C189.097 43 191.597 41.75 194.301 41.0455C197.028 40.3182 199.71 39.9545 202.347 39.9545C204.028 39.9545 205.96 40.1591 208.142 40.5682C210.347 40.9545 212.472 41.7614 214.517 42.9886C216.585 44.2159 218.301 46.0682 219.665 48.5455C221.028 51.0227 221.71 54.3409 221.71 58.5V93H213.665V85.9091H213.256C212.71 87.0455 211.801 88.2614 210.528 89.5568C209.256 90.8523 207.563 91.9545 205.449 92.8636C203.335 93.7727 200.756 94.2273 197.71 94.2273ZM198.938 87C202.119 87 204.801 86.375 206.983 85.125C209.188 83.875 210.847 82.2614 211.96 80.2841C213.097 78.3068 213.665 76.2273 213.665 74.0455V66.6818C213.324 67.0909 212.574 67.4659 211.415 67.8068C210.278 68.125 208.96 68.4091 207.46 68.6591C205.983 68.8864 204.54 69.0909 203.131 69.2727C201.744 69.4318 200.619 69.5682 199.756 69.6818C197.665 69.9545 195.71 70.3977 193.892 71.0114C192.097 71.6023 190.642 72.5 189.528 73.7045C188.438 74.8864 187.892 76.5 187.892 78.5455C187.892 81.3409 188.926 83.4545 190.994 84.8864C193.085 86.2955 195.733 87 198.938 87ZM259.168 40.6364V47.4545H232.031V40.6364H259.168ZM239.94 28.0909H247.986V78C247.986 80.2727 248.315 81.9773 248.974 83.1136C249.656 84.2273 250.52 84.9773 251.565 85.3636C252.634 85.7273 253.759 85.9091 254.94 85.9091C255.827 85.9091 256.554 85.8636 257.122 85.7727C257.69 85.6591 258.145 85.5682 258.486 85.5L260.122 92.7273C259.577 92.9318 258.815 93.1364 257.838 93.3409C256.861 93.5682 255.622 93.6818 254.122 93.6818C251.849 93.6818 249.622 93.1932 247.44 92.2159C245.281 91.2386 243.486 89.75 242.054 87.75C240.645 85.75 239.94 83.2273 239.94 80.1818V28.0909ZM280.44 61.5V93H272.395V23.1818H280.44V48.8182H281.122C282.349 46.1136 284.19 43.9659 286.645 42.375C289.122 40.7614 292.418 39.9545 296.531 39.9545C300.099 39.9545 303.224 40.6705 305.906 42.1023C308.588 43.5114 310.668 45.6818 312.145 48.6136C313.645 51.5227 314.395 55.2273 314.395 59.7273V93H306.349V60.2727C306.349 56.1136 305.27 52.8977 303.111 50.625C300.974 48.3295 298.009 47.1818 294.213 47.1818C291.577 47.1818 289.213 47.7386 287.122 48.8523C285.054 49.9659 283.418 51.5909 282.213 53.7273C281.031 55.8636 280.44 58.4545 280.44 61.5Z" fill="#B19C88"/>
<line x1="69" y1="114" x2="366" y2="114" stroke="white" stroke-width="4"/>
</svg>
