<svg xmlns="http://www.w3.org/2000/svg" version="1.1" xmlns:xlink="http://www.w3.org/1999/xlink" xmlns:svgjs="http://svgjs.dev/svgjs" width="2000" height="1500" viewBox="0 0 2000 1500"><rect width="2000" height="1500" fill="#d89340"></rect><g transform="matrix(0.75,0,0,0.75,249.090909090909,509.2989026341561)"><svg viewBox="0 0 396 127" data-background-color="#d89340" preserveAspectRatio="xMidYMid meet" height="641" width="2000" xmlns="http://www.w3.org/2000/svg" xmlns:xlink="http://www.w3.org/1999/xlink"><g id="tight-bounds" transform="matrix(1,0,0,1,0.2400000000000091,0.08614532597437119)"><svg viewBox="0 0 395.52 126.82770934805129" height="126.82770934805129" width="395.52"><g><svg viewBox="0 0 647.4425324179173 207.60935811353633" height="126.82770934805129" width="395.52"><g><rect width="9.084234631095745" height="180.26861775415597" x="219.0575788572515" y="13.670370179690181" fill="#524d4b" opacity="1" stroke-width="0" stroke="transparent" fill-opacity="1" class="rect-yte-0" data-fill-palette-color="primary" rx="1%" id="yte-0" data-palette-color="#524d4b"></rect></g><g transform="matrix(1,0,0,1,251.92253241791727,28.692754992536507)"><svg viewBox="0 0 395.52 150.22384812846332" height="150.22384812846332" width="395.52"><g id="textblocktransform"><svg viewBox="0 0 395.52 150.22384812846332" height="150.22384812846332" width="395.52" id="textblock"><g><svg viewBox="0 0 395.52 100.73331863285556" height="100.73331863285556" width="395.52"><g transform="matrix(1,0,0,1,0,0)"><svg width="395.52" viewBox="1.7 -34 136.04000000000002 34.65" height="100.73331863285556" data-palette-color="#524d4b"><path d="M9.8 0.65L9.8 0.65Q6.35 0.65 4.28-1.23 2.2-3.1 2.2-6.75L2.2-6.75Q2.2-8.45 2.68-10.05 3.15-11.65 3.95-13.05L3.95-13.05Q3.15-12.55 2.75-12.55L2.75-12.55Q2.15-12.55 1.93-13.23 1.7-13.9 1.7-14.55L1.7-14.55Q1.7-15.7 2.18-16.38 2.65-17.05 3.1-17.4L3.1-17.4Q4.15-18.3 6.4-19.38 8.65-20.45 11.8-20.45L11.8-20.45Q16.1-20.45 18.48-18.05 20.85-15.65 20.85-11.35L20.85-11.35Q20.85-8 19.45-5.28 18.05-2.55 15.58-0.95 13.1 0.65 9.8 0.65ZM11.35-4.45L11.35-4.45Q13.85-4.45 15.58-6.03 17.3-7.6 17.3-10.2L17.3-10.2Q17.3-12.9 15.55-14.05 13.8-15.2 11.5-15.2L11.5-15.2Q10.45-15.2 9.6-15 8.75-14.8 8-14.5L8-14.5Q7.3-13.5 6.75-12.25 6.2-11 6.2-9.5L6.2-9.5Q6.2-7 7.7-5.73 9.2-4.45 11.35-4.45ZM27.5 0.55L27.5 0.55Q25.7 0.55 25.9-0.65L25.9-0.65Q26.45-2.8 26.82-5.03 27.2-7.25 27.2-9.3L27.2-9.3Q27.2-11.95 26.87-13.18 26.55-14.4 26-14.88 25.45-15.35 24.65-15.6L24.65-15.6Q24.3-15.75 24.02-16 23.75-16.25 23.75-16.7L23.75-16.7Q23.75-17.4 24.3-18.25 24.85-19.1 25.87-19.73 26.9-20.35 28.2-20.35L28.2-20.35Q29.9-20.35 30.55-19.18 31.2-18 31.2-16.1L31.2-16.1Q31.2-14.85 30.95-13.3 30.7-11.75 30.45-10.5L30.45-10.5 30.6-10.45Q31.6-13.1 33.02-15.38 34.45-17.65 36.35-19.05 38.25-20.45 40.75-20.45L40.75-20.45Q43.4-20.45 44.8-18.85 46.2-17.25 46.2-14.85L46.2-14.85Q46.2-13.85 45.97-12.95 45.75-12.05 45.5-11.2L45.5-11.2Q45.25-10.4 45.07-9.55 44.9-8.7 44.9-7.85L44.9-7.85Q44.9-5 47.6-4L47.6-4Q48.3-3.7 48.3-3.1L48.3-3.1Q48.3-2.65 48-1.8 47.7-0.95 46.9-0.23 46.1 0.5 44.55 0.5L44.55 0.5Q42.55 0.5 41.45-0.93 40.35-2.35 40.35-4.55L40.35-4.55Q40.35-5.8 40.62-7.08 40.9-8.35 41.2-9.45L41.2-9.45Q41.4-10.3 41.57-11.13 41.75-11.95 41.75-12.6L41.75-12.6Q41.75-14.9 39.35-14.9L39.35-14.9Q37.3-14.9 35.75-13.38 34.2-11.85 33.1-9.55 32-7.25 31.3-4.9L31.3-4.9 31.3-3.7Q31.3-1.85 30.27-0.65 29.25 0.55 27.5 0.55ZM55.2 0.5L55.2 0.5Q54.59 0.5 53.97 0.3 53.34 0.1 52.95-0.65 52.55-1.4 52.55-2.95L52.55-2.95Q52.55-4.2 52.77-6.13 52.99-8.05 53.34-10.25L53.34-10.25Q53.7-12.5 53.92-15 54.14-17.5 54.14-20.05L54.14-20.05Q54.14-21.05 54.09-22.2 54.05-23.35 53.89-24.45L53.89-24.45Q53.55-24.25 53.22-24.13 52.89-24 52.59-24L52.59-24Q51.74-24 51.74-25.65L51.74-25.65Q51.74-27.15 52.42-28.18 53.09-29.2 54.89-30.15L54.89-30.15Q56.64-31.1 59.02-31.73 61.39-32.35 63.84-32.35L63.84-32.35Q68.69-32.35 71.62-29.8 74.55-27.25 74.55-23L74.55-23Q74.55-20.4 73.5-18.2 72.44-16 70.72-14.38 69-12.75 66.97-11.88 64.94-11 62.99-11L62.99-11Q61.14-11 60.49-11.83 59.84-12.65 59.84-14.2L59.84-14.2Q59.84-14.95 60.02-15.58 60.2-16.2 60.8-16.2L60.8-16.2Q60.95-16.2 61.24-16.15 61.55-16.1 61.84-16L61.84-16Q62.14-15.95 62.7-15.85 63.24-15.75 63.95-15.75L63.95-15.75Q66.69-15.75 68.42-17.3 70.14-18.85 70.14-21.3L70.14-21.3Q70.14-23.85 68.25-25.3 66.34-26.75 63.34-26.75L63.34-26.75Q62.24-26.75 61.09-26.58 59.95-26.4 58.8-26.1L58.8-26.1Q58.64-22.8 58.09-18.6L58.09-18.6Q57.8-16.1 57.57-13.68 57.34-11.25 57.34-9.25L57.34-9.25Q57.34-7.5 57.67-6.18 57.99-4.85 58.99-3.9L58.99-3.9Q59.7-3.2 59.7-2.4L59.7-2.4Q59.7-1.3 58.45-0.4 57.2 0.5 55.2 0.5ZM79.84 0.65L79.84 0.65Q76.84 0.65 75.02-1.23 73.19-3.1 73.19-6.6L73.19-6.6Q73.19-9.1 74.17-11.58 75.14-14.05 76.99-16.05 78.84-18.05 81.44-19.25 84.04-20.45 87.29-20.45L87.29-20.45Q90.29-20.45 92.42-19.43 94.54-18.4 94.54-16.65L94.54-16.65Q94.54-16.2 94.44-15.48 94.34-14.75 94.19-14.3L94.19-14.3Q94.04-13.9 93.77-13.58 93.49-13.25 93.04-13.25L93.04-13.25Q92.84-13.25 92.29-13.4L92.29-13.4Q92.09-12.35 91.99-11.35 91.89-10.35 91.89-9.35L91.89-9.35Q91.89-7.45 92.47-5.98 93.04-4.5 94.74-4.15L94.74-4.15Q95.19-4.05 95.47-3.85 95.74-3.65 95.74-3L95.74-3Q95.74-2.45 95.47-1.6 95.19-0.75 94.42-0.08 93.64 0.6 92.19 0.6L92.19 0.6Q90.24 0.6 89.19-0.83 88.14-2.25 88.14-4.9L88.14-4.9Q86.79-2.45 84.72-0.9 82.64 0.65 79.84 0.65ZM81.44-4.55L81.44-4.55Q83.44-4.55 84.97-5.8 86.49-7.05 87.34-8.95L87.34-8.95Q87.89-10.15 88.19-11.58 88.49-13 88.59-14.4L88.59-14.4Q87.74-14.8 86.64-15.05 85.54-15.3 84.34-15.3L84.34-15.3Q81.29-15.3 79.32-13.5 77.34-11.7 77.34-9L77.34-9Q77.34-7 78.44-5.78 79.54-4.55 81.44-4.55ZM106.14 0.65L106.14 0.65Q103.09 0.65 101.77-1.38 100.44-3.4 100.44-6.6L100.44-6.6Q100.44-7.75 100.56-8.85 100.69-9.95 100.84-11.05L100.84-11.05Q100.99-12.15 101.14-13.2 101.29-14.25 101.39-15.2L101.39-15.2Q100.34-14.9 99.29-14.9L99.29-14.9Q98.19-14.9 98.19-15.8L98.19-15.8Q98.19-16.75 99.04-18.13 99.89-19.5 101.16-20.85 102.44-22.2 103.72-23.13 104.99-24.05 105.89-24.05L105.89-24.05Q106.99-24.05 106.99-22.15L106.99-22.15Q106.99-21.65 106.91-21.13 106.84-20.6 106.74-20.05L106.74-20.05Q107.69-20.25 108.66-20.4 109.64-20.55 110.54-20.55L110.54-20.55Q111.69-20.55 112.31-20.15 112.94-19.75 112.94-18.6L112.94-18.6Q112.94-17.4 112.36-16.2 111.79-15 111.09-15L111.09-15Q110.94-15 110.59-15.05 110.24-15.1 109.74-15.2L109.74-15.2Q109.09-15.35 108.09-15.5 107.09-15.65 105.69-15.65L105.69-15.65Q105.34-14.1 105.06-12.48 104.79-10.85 104.79-9.55L104.79-9.55Q104.79-6.65 106.24-5.6 107.69-4.55 110.44-4.55L110.44-4.55Q111.29-4.55 111.64-4.28 111.99-4 111.99-3.3L111.99-3.3Q111.99-1.65 110.29-0.5 108.59 0.65 106.14 0.65ZM117.14 0.55L117.14 0.55Q116.44 0.55 115.94 0.23 115.44-0.1 115.54-0.65L115.54-0.65Q116.29-4.65 116.81-8.78 117.34-12.9 117.34-17.1L117.34-17.1Q117.34-20.8 117.09-23.8 116.84-26.8 115.49-29.55L115.49-29.55Q115.24-30.1 115.09-30.5 114.94-30.9 114.94-31.25L114.94-31.25Q114.94-32.2 116.06-33.1 117.19-34 118.44-34L118.44-34Q120.19-34 120.84-31.8 121.49-29.6 121.49-25.3L121.49-25.3Q121.49-20.15 120.89-16.32 120.29-12.5 119.84-10.5L119.84-10.5 120.04-10.4Q121.04-13.05 122.46-15.35 123.89-17.65 125.79-19.05 127.69-20.45 130.19-20.45L130.19-20.45Q132.84-20.45 134.21-18.85 135.59-17.25 135.59-14.9L135.59-14.9Q135.59-13.9 135.39-12.98 135.19-12.05 134.94-11.2L134.94-11.2Q134.69-10.4 134.49-9.58 134.29-8.75 134.29-7.9L134.29-7.9Q134.29-6.35 135.04-5.38 135.79-4.4 137.04-4L137.04-4Q137.39-3.9 137.56-3.73 137.74-3.55 137.74-3.1L137.74-3.1Q137.74-2.65 137.44-1.8 137.14-0.95 136.34-0.23 135.54 0.5 133.99 0.5L133.99 0.5Q131.99 0.5 130.89-0.93 129.79-2.35 129.79-4.6L129.79-4.6Q129.79-5.7 130.01-6.85 130.24-8 130.54-9.05L130.54-9.05Q130.79-10.1 130.99-11.03 131.19-11.95 131.19-12.6L131.19-12.6Q131.19-14.9 128.79-14.9L128.79-14.9Q126.79-14.9 125.26-13.48 123.74-12.05 122.66-9.88 121.59-7.7 120.89-5.4L120.89-5.4 120.89-3.7Q120.89-1.85 119.81-0.65 118.74 0.55 117.14 0.55Z" opacity="1" transform="matrix(1,0,0,1,0,0)" fill="#524d4b" class="wordmark-text-0" data-fill-palette-color="primary" id="text-0"></path></svg></g></svg></g><g transform="matrix(1,0,0,1,0,124.51403756242557)"><svg viewBox="0 0 232.20979199999996 25.70981056603773" height="25.70981056603773" width="232.20979199999996"><g transform="matrix(1,0,0,1,0,0)"><svg width="232.20979199999996" viewBox="1.46 -31.98 372.62 41.26" height="25.70981056603773" data-palette-color="#524d4b"><path d="M10.99-1.22L10.99-1.22 8.79-1.22 8.79-11.77Q8.94-16.31 12.01-18.31L12.01-18.31Q13.33-19.14 14.7-19.14L14.7-19.14Q17.68-19.14 18.75-16.36L18.75-16.36Q19.19-15.23 19.19-13.82L19.19-13.82 19.19-4.15Q19.19-1.9 17.92-1.46L17.92-1.46Q17.19-1.22 15.53-1.22L15.53-1.22 15.53 0 26.51 0Q26.51-1.07 25.78-1.17L25.78-1.17Q25.59-1.22 25.29-1.22L25.29-1.22 22.85-1.22 22.85-13.33Q22.85-18.21 19.48-20.31L19.48-20.31Q17.92-21.24 16.11-21.24L16.11-21.24Q12.5-21.24 10.16-18.36L10.16-18.36Q9.28-17.24 8.74-15.87L8.74-15.87 8.54-20.75 1.46-20.75 1.46-19.53 5.13-19.53 5.13-4.15Q5.13-1.9 3.86-1.46L3.86-1.46Q3.13-1.22 1.46-1.22L1.46-1.22 1.46 0 12.21 0Q12.21-1.07 11.47-1.17L11.47-1.17Q11.28-1.22 10.99-1.22ZM33.84-10.4L33.84-10.4Q33.84-17.97 37.99-19.63L37.99-19.63Q39.06-20.02 40.23-20.02L40.23-20.02Q45.65-20.02 46.53-13.18L46.53-13.18Q46.68-12.01 46.68-10.6L46.68-10.6Q46.68-2.39 42.19-0.98L42.19-0.98Q41.31-0.73 40.38-0.73L40.38-0.73Q35.45-0.73 34.18-6.59L34.18-6.59Q33.84-8.3 33.84-10.4ZM40.38-21.24L40.38-21.24Q35.69-21.24 32.57-18.02L32.57-18.02Q29.68-15.04 29.68-10.6L29.68-10.6Q29.68-4.44 34.18-1.37L34.18-1.37Q36.91 0.49 40.23 0.49L40.23 0.49Q44.92 0.49 48-2.83L48-2.83Q50.83-5.86 50.83-10.4L50.83-10.4Q50.83-16.55 46.29-19.53L46.29-19.53Q43.6-21.24 40.38-21.24ZM74.46-20.02L74.46-20.02Q77.87-20.02 79-17.14L79-17.14Q79.39-16.21 79.39-15.14L79.39-15.14Q79.39-12.7 77.04-12.16L77.04-12.16Q75.82-11.91 73.58-11.96L73.58-11.96 68.4-12.11Q68.64-17.72 72.06-19.43L72.06-19.43Q73.19-20.02 74.46-20.02ZM82.95-4.69L82.95-4.69 81.73-5.13Q80.02-1.42 76.21-0.93L76.21-0.93Q75.72-0.88 75.29-0.88L75.29-0.88Q70.16-0.88 68.84-6.98L68.84-6.98Q68.45-8.69 68.4-10.74L68.4-10.74 74.26-10.64Q80.22-10.55 81.93-11.77L81.93-11.77Q83.24-12.74 83.24-14.55L83.24-14.55Q83.24-17.87 79.88-19.82L79.88-19.82Q77.48-21.24 74.36-21.24L74.36-21.24Q68.25-21.24 65.62-16.16L65.62-16.16Q64.25-13.53 64.25-10.21L64.25-10.21Q64.25-4.15 68.6-1.22L68.6-1.22Q71.18 0.49 74.5 0.49L74.5 0.49Q79.78 0.49 82.27-3.32L82.27-3.32Q82.66-4 82.95-4.69ZM95.94-1.22L95.94-1.22 93.74-1.22 93.74-11.77Q93.89-16.31 96.96-18.31L96.96-18.31Q98.28-19.14 99.65-19.14L99.65-19.14Q102.63-19.14 103.7-16.36L103.7-16.36Q104.14-15.23 104.14-13.82L104.14-13.82 104.14-4.15Q104.14-1.9 102.87-1.46L102.87-1.46Q102.14-1.22 100.48-1.22L100.48-1.22 100.48 0 111.46 0Q111.46-1.07 110.73-1.17L110.73-1.17Q110.54-1.22 110.24-1.22L110.24-1.22 107.8-1.22 107.8-13.33Q107.8-18.21 104.43-20.31L104.43-20.31Q102.87-21.24 101.06-21.24L101.06-21.24Q97.45-21.24 95.11-18.36L95.11-18.36Q94.23-17.24 93.69-15.87L93.69-15.87 93.5-20.75 86.42-20.75 86.42-19.53 90.08-19.53 90.08-4.15Q90.08-1.9 88.81-1.46L88.81-1.46Q88.08-1.22 86.42-1.22L86.42-1.22 86.42 0 97.16 0Q97.16-1.07 96.43-1.17L96.43-1.17Q96.23-1.22 95.94-1.22ZM130.9-5.18L131.29 0 138.27 0Q138.27-1.07 137.54-1.17L137.54-1.17Q137.34-1.22 137.05-1.22L137.05-1.22 134.61-1.22 134.51-31.74 126.21-31.74 126.21-30.52 130.85-30.52 130.85-18.6Q128.45-21.24 124.4-21.24L124.4-21.24Q119.03-21.24 116.3-16.46L116.3-16.46Q114.64-13.53 114.64-9.86L114.64-9.86Q114.64-3.81 118.44-1.03L118.44-1.03Q120.59 0.49 123.18 0.49L123.18 0.49Q128.5 0.39 130.9-5.18L130.9-5.18ZM118.79-10.45L118.79-10.45Q118.79-17.33 122.5-19.38L122.5-19.38Q123.67-20.02 125.09-20.02L125.09-20.02Q128.65-20.02 130.16-16.21L130.16-16.21Q130.99-14.16 130.99-11.38L130.99-11.38Q130.99-5.52 128.06-2.88L128.06-2.88Q126.5-1.46 124.5-1.46L124.5-1.46Q120.5-1.46 119.27-6.35L119.27-6.35Q118.79-8.15 118.79-10.45ZM151.45 8.06L148.03 8.06 148.03-2.05Q150.72 0.29 154.23 0.49L154.23 0.49Q158.58 0.49 161.51-2.78L161.51-2.78Q164.34-5.96 164.34-10.84L164.34-10.84Q164.34-16.41 161.26-19.29L161.26-19.29Q159.12-21.24 156.04-21.24L156.04-21.24Q151.3-21.24 148.96-17.48L148.96-17.48Q148.37-16.5 147.98-15.43L147.98-15.43 147.74-20.75 140.71-20.75 140.71-19.53 144.37-19.53 144.37 5.13Q144.37 7.37 143.1 7.81L143.1 7.81Q142.37 8.06 140.71 8.06L140.71 8.06 140.71 9.28 152.67 9.28Q152.67 8.2 151.94 8.11L151.94 8.11Q151.74 8.06 151.45 8.06L151.45 8.06ZM154.48-19.29L154.48-19.29Q158.73-19.29 159.85-13.96L159.85-13.96Q160.19-12.35 160.19-10.35L160.19-10.35Q160.19-3.17 156.33-1.27L156.33-1.27Q155.21-0.73 153.89-0.73L153.89-0.73Q150.13-0.73 148.72-4.69L148.72-4.69Q147.98-6.69 147.98-9.42L147.98-9.42Q147.98-15.77 151.25-18.21L151.25-18.21Q152.72-19.29 154.48-19.29ZM172.39-10.4L172.39-10.4Q172.39-17.97 176.55-19.63L176.55-19.63Q177.62-20.02 178.79-20.02L178.79-20.02Q184.21-20.02 185.09-13.18L185.09-13.18Q185.24-12.01 185.24-10.6L185.24-10.6Q185.24-2.39 180.74-0.98L180.74-0.98Q179.87-0.73 178.94-0.73L178.94-0.73Q174.01-0.73 172.74-6.59L172.74-6.59Q172.39-8.3 172.39-10.4ZM178.94-21.24L178.94-21.24Q174.25-21.24 171.13-18.02L171.13-18.02Q168.24-15.04 168.24-10.6L168.24-10.6Q168.24-4.44 172.74-1.37L172.74-1.37Q175.47 0.49 178.79 0.49L178.79 0.49Q183.48 0.49 186.55-2.83L186.55-2.83Q189.39-5.86 189.39-10.4L189.39-10.4Q189.39-16.55 184.85-19.53L184.85-19.53Q182.16-21.24 178.94-21.24ZM202.81-1.22L202.81-1.22 200.37-1.22 200.37-20.75 192.8-20.75 192.8-19.53 196.71-19.53 196.71-4.15Q196.71-1.9 195.19-1.42L195.19-1.42Q194.46-1.22 192.8-1.22L192.8-1.22 192.8 0 204.03 0Q204.03-1.07 203.3-1.17L203.3-1.17Q203.06-1.22 202.81-1.22ZM200.96-27.88L200.96-27.88Q200.96-29.59 199.44-30.32L199.44-30.32Q198.86-30.57 198.32-30.57L198.32-30.57Q196.61-30.57 195.88-29L195.88-29Q195.63-28.47 195.63-27.88L195.63-27.88Q195.63-26.07 197.25-25.39L197.25-25.39Q197.78-25.2 198.32-25.2L198.32-25.2Q200.03-25.2 200.71-26.76L200.71-26.76Q200.96-27.29 200.96-27.88ZM216.48-1.22L216.48-1.22 214.28-1.22 214.28-11.77Q214.43-16.31 217.51-18.31L217.51-18.31Q218.83-19.14 220.19-19.14L220.19-19.14Q223.17-19.14 224.25-16.36L224.25-16.36Q224.68-15.23 224.68-13.82L224.68-13.82 224.68-4.15Q224.68-1.9 223.42-1.46L223.42-1.46Q222.68-1.22 221.02-1.22L221.02-1.22 221.02 0 232.01 0Q232.01-1.07 231.28-1.17L231.28-1.17Q231.08-1.22 230.79-1.22L230.79-1.22 228.35-1.22 228.35-13.33Q228.35-18.21 224.98-20.31L224.98-20.31Q223.42-21.24 221.61-21.24L221.61-21.24Q218-21.24 215.65-18.36L215.65-18.36Q214.77-17.24 214.24-15.87L214.24-15.87 214.04-20.75 206.96-20.75 206.96-19.53 210.62-19.53 210.62-4.15Q210.62-1.9 209.35-1.46L209.35-1.46Q208.62-1.22 206.96-1.22L206.96-1.22 206.96 0 217.7 0Q217.7-1.07 216.97-1.17L216.97-1.17Q216.77-1.22 216.48-1.22ZM234.2-20.75L234.2-19.53 237.62-19.53 237.62-5.76Q237.96 0.34 243.24 0.54L243.24 0.54Q247.73 0.54 248.85-4.98L248.85-4.98Q248.85-5.03 248.85-5.08L248.85-5.08 247.53-5.32Q246.31-1.27 243.97-0.93L243.97-0.93Q241.33-1.03 241.28-4.69L241.28-4.69 241.28-19.53 248.85-19.53 248.85-20.75 241.28-20.75 241.28-26.42 237.62-25.39 237.62-20.75 234.2-20.75ZM270.09-1.22L270.09-1.22 267.65-1.22 267.65-20.75 260.08-20.75 260.08-19.53 263.98-19.53 263.98-4.15Q263.98-1.9 262.47-1.42L262.47-1.42Q261.74-1.22 260.08-1.22L260.08-1.22 260.08 0 271.31 0Q271.31-1.07 270.58-1.17L270.58-1.17Q270.33-1.22 270.09-1.22ZM268.23-27.88L268.23-27.88Q268.23-29.59 266.72-30.32L266.72-30.32Q266.13-30.57 265.6-30.57L265.6-30.57Q263.89-30.57 263.15-29L263.15-29Q262.91-28.47 262.91-27.88L262.91-27.88Q262.91-26.07 264.52-25.39L264.52-25.39Q265.06-25.2 265.6-25.2L265.6-25.2Q267.3-25.2 267.99-26.76L267.99-26.76Q268.23-27.29 268.23-27.88ZM283.76-1.22L283.76-1.22 281.56-1.22 281.56-11.77Q281.71-16.31 284.78-18.31L284.78-18.31Q286.1-19.14 287.47-19.14L287.47-19.14Q290.45-19.14 291.52-16.36L291.52-16.36Q291.96-15.23 291.96-13.82L291.96-13.82 291.96-4.15Q291.96-1.9 290.69-1.46L290.69-1.46Q289.96-1.22 288.3-1.22L288.3-1.22 288.3 0 299.28 0Q299.28-1.07 298.55-1.17L298.55-1.17Q298.36-1.22 298.06-1.22L298.06-1.22 295.62-1.22 295.62-13.33Q295.62-18.21 292.25-20.31L292.25-20.31Q290.69-21.24 288.88-21.24L288.88-21.24Q285.27-21.24 282.93-18.36L282.93-18.36Q282.05-17.24 281.51-15.87L281.51-15.87 281.32-20.75 274.24-20.75 274.24-19.53 277.9-19.53 277.9-4.15Q277.9-1.9 276.63-1.46L276.63-1.46Q275.9-1.22 274.24-1.22L274.24-1.22 274.24 0 284.98 0Q284.98-1.07 284.24-1.17L284.24-1.17Q284.05-1.22 283.76-1.22ZM321.59-1.22L321.59-1.22 318.96-1.22 318.96-31.74 311.63-31.74 311.63-30.52 315.29-30.52 315.29-4.15Q315.29-1.9 314.03-1.46L314.03-1.46Q313.29-1.22 311.63-1.22L311.63-1.22 311.63 0 322.81 0Q322.81-1.07 322.08-1.17L322.08-1.17Q321.89-1.22 321.59-1.22ZM335.6-1.22L335.6-1.22 333.16-1.22 333.16-20.75 325.59-20.75 325.59-19.53 329.5-19.53 329.5-4.15Q329.5-1.9 327.99-1.42L327.99-1.42Q327.25-1.22 325.59-1.22L325.59-1.22 325.59 0 336.83 0Q336.83-1.07 336.09-1.17L336.09-1.17Q335.85-1.22 335.6-1.22ZM333.75-27.88L333.75-27.88Q333.75-29.59 332.24-30.32L332.24-30.32Q331.65-30.57 331.11-30.57L331.11-30.57Q329.4-30.57 328.67-29L328.67-29Q328.43-28.47 328.43-27.88L328.43-27.88Q328.43-26.07 330.04-25.39L330.04-25.39Q330.58-25.2 331.11-25.2L331.11-25.2Q332.82-25.2 333.5-26.76L333.5-26.76Q333.75-27.29 333.75-27.88ZM350.54-1.22L350.54-1.22 347.13-1.22 347.13-19.53 352.74-19.53 352.74-20.75 347.13-20.75 347.13-21.04Q347.13-29.39 349.62-30.52L349.62-30.52Q350.15-30.76 350.79-30.76L350.79-30.76Q352.3-30.76 353.33-28.96L353.33-28.96Q354.21-27.39 354.6-27.1L354.6-27.1Q354.99-26.81 355.48-26.81L355.48-26.81Q357.09-26.81 357.38-28.17L357.38-28.17Q357.43-28.42 357.43-28.61L357.43-28.61Q357.43-30.42 354.99-31.45L354.99-31.45Q353.57-31.98 351.81-31.98L351.81-31.98Q347.22-31.98 344.98-28.17L344.98-28.17Q343.46-25.54 343.46-21.53L343.46-21.53 343.46-20.75 340.05-20.75 340.05-19.53 343.46-19.53 343.46-4.15Q343.46-1.9 342.19-1.46L342.19-1.46Q341.46-1.22 339.8-1.22L339.8-1.22 339.8 0 351.76 0Q351.76-1.07 351.03-1.17L351.03-1.17Q350.84-1.22 350.54-1.22ZM365.29-20.02L365.29-20.02Q368.71-20.02 369.83-17.14L369.83-17.14Q370.22-16.21 370.22-15.14L370.22-15.14Q370.22-12.7 367.87-12.16L367.87-12.16Q366.65-11.91 364.41-11.96L364.41-11.96 359.23-12.11Q359.48-17.72 362.89-19.43L362.89-19.43Q364.02-20.02 365.29-20.02ZM373.78-4.69L373.78-4.69 372.56-5.13Q370.85-1.42 367.04-0.93L367.04-0.93Q366.56-0.88 366.12-0.88L366.12-0.88Q360.99-0.88 359.67-6.98L359.67-6.98Q359.28-8.69 359.23-10.74L359.23-10.74 365.09-10.64Q371.05-10.55 372.76-11.77L372.76-11.77Q374.08-12.74 374.08-14.55L374.08-14.55Q374.08-17.87 370.71-19.82L370.71-19.82Q368.31-21.24 365.19-21.24L365.19-21.24Q359.09-21.24 356.45-16.16L356.45-16.16Q355.08-13.53 355.08-10.21L355.08-10.21Q355.08-4.15 359.43-1.22L359.43-1.22Q362.02 0.49 365.34 0.49L365.34 0.49Q370.61 0.49 373.1-3.32L373.1-3.32Q373.49-4 373.78-4.69Z" opacity="1" transform="matrix(1,0,0,1,0,0)" fill="#524d4b" class="slogan-text-1" data-fill-palette-color="secondary" id="text-1"></path></svg></g></svg></g></svg></g></svg></g><g><svg viewBox="0 0 195.2768599276815 207.60935811353633" height="207.60935811353633" width="195.2768599276815"><g><svg xmlns="http://www.w3.org/2000/svg" xmlns:xlink="http://www.w3.org/1999/xlink" version="1.1" x="0" y="0" viewBox="17.6 15.6 64.61905377933451 68.7" enable-background="new 0 0 100 100" xml:space="preserve" height="207.60935811353633" width="195.2768599276815" class="icon-icon-0" data-fill-palette-color="accent" id="icon-0"><path d="M53.2 51.2V40.4C53.2 38.6 51.7 37.2 50 37.2S46.8 38.7 46.8 40.4V52.7C46.8 52.8 46.8 52.9 46.9 53 46.9 53.1 47 53.2 47 53.3S47.1 53.5 47.1 53.6 47.1 53.7 47.2 53.8L53 63.8C53.6 64.8 54.7 65.4 55.8 65.4 56.3 65.4 56.9 65.3 57.4 65 59 64.1 59.5 62.1 58.6 60.6z" fill="#e3dfd9" data-fill-palette-color="accent"></path><path d="M79.2 25.5H64.9V24.7C64.9 20.9 62.1 15.6 55.8 15.6H44.2C39.2 15.6 35.1 19.7 35.1 24.7V25.5H20.8C19 25.5 17.6 27 17.6 28.7V75.4C17.6 77.2 19.1 78.6 20.8 78.6H23.4V81.1C23.4 82.9 24.9 84.3 26.6 84.3S29.8 82.8 29.8 81.1V78.6H70V80.8C70 82.6 71.5 84 73.2 84 75 84 76.4 82.5 76.4 80.8V78.6H79C80.8 78.6 82.2 77.1 82.2 75.4V28.7C82.4 26.9 81 25.5 79.2 25.5M41.6 24.7C41.6 23.3 42.8 22.1 44.2 22.1H55.9C58.3 22.1 58.5 24.3 58.5 24.7V25.5H41.6zM24.1 32H76V72.2H24.1z" fill="#e3dfd9" data-fill-palette-color="accent"></path></svg></g></svg></g></svg></g><defs></defs></svg><rect width="395.52" height="126.82770934805129" fill="none" stroke="none" visibility="hidden"></rect></g></svg></g></svg>